Coordinates
version=1
nRows=29
nColumns=22
inDegrees=yes

Units are S.I. units (second, meters, Newtons, ...)
If the header above contains a line with 'inDegrees', this indicates whether rotational values are in degrees (yes) or radians (no).

endheader
time	pelvis_tilt	pelvis_list	pelvis_rotation	pelvis_tx	pelvis_ty	pelvis_tz	hip_flexion_r	hip_adduction_r	hip_rotation_r	knee_angle_r	ankle_angle_r	subtalar_angle_r	hip_flexion_l	hip_adduction_l	hip_rotation_l	knee_angle_l	ankle_angle_l	subtalar_angle_l	lumbar_extension	lumbar_bending	lumbar_rotation
      3.76000000	      1.68979971	      7.58753525	    153.10688261	      0.63575041	      0.92306549	     -0.43004635	     -2.37476437	      4.45917648	     -7.11701621	    -14.56558910	     14.63580287	      4.34880469	     31.52844242	     -2.61556427	     -1.98928490	    -46.68508841	      2.39437848	     -7.21601973	    -15.10239108	      4.63266690	      4.58464100
      3.77000000	      1.70951126	      7.58949070	    153.27292244	      0.62829206	      0.92188681	     -0.43354558	     -3.00171342	      4.49682710	     -7.16042296	    -14.44912837	     15.08890043	      4.19179879	     31.46410290	     -2.89640939	     -2.33783915	    -42.97850708	      2.83806011	     -7.20312576	    -14.95628818	      4.53869026	      4.91788058
      3.78000000	      1.74019909	      7.61189480	    153.42713554	      0.62067997	      0.92056855	     -0.43703394	     -3.64134602	      4.55688885	     -7.17153009	    -14.32615443	     15.54299858	      4.04654131	     31.33914216	     -3.22375463	     -2.72054134	    -39.23507917	      3.22014454	     -7.14670104	    -14.79458553	      4.46682462	      5.21416491
      3.79000000	      1.77408754	      7.66887921	    153.57518118	      0.61289220	      0.91913268	     -0.44051642	     -4.32003826	      4.65031744	     -7.15411935	    -14.17704961	     15.98776661	      3.91042122	     31.15622594	     -3.60932742	     -3.16391310	    -35.50733634	      3.54460339	     -7.05019234	    -14.63371604	      4.42807305	      5.47261476
      3.80000000	      1.83640503	      7.74126644	    153.71193772	      0.60488753	      0.91750780	     -0.44403454	     -5.00188209	      4.76674736	     -7.13990379	    -14.01259913	     16.43821220	      3.81862013	     30.97835638	     -4.06556311	     -3.76590946	    -31.88252482	      3.87415733	     -6.93448028	    -14.42162154	      4.41076572	      5.70218623
      3.81000000	      1.93114230	      7.82377444	    153.82934023	      0.59666545	      0.91568092	     -0.44759302	     -5.67365388	      4.90029427	     -7.12324593	    -13.84776581	     16.91089280	      3.77564809	     30.83910688	     -4.59039090	     -4.59099326	    -28.43980942	      4.22355279	     -6.83415271	    -14.15275978	      4.40990354	      5.91493156
      3.82000000	      2.00303576	      7.94714262	    153.95610030	      0.58819771	      0.91377573	     -0.45113433	     -6.42953322	      5.05967727	     -7.10076245	    -13.63011952	     17.35501420	      3.74588929	     30.68808887	     -5.16057582	     -5.63518876	    -25.23483127	      4.54169000	     -6.75508108	    -13.90732327	      4.43682758	      6.08986217
      3.83000000	      2.08917842	      8.07754682	    154.07677949	      0.57949086	      0.91170908	     -0.45465532	     -7.19583432	      5.22221168	     -7.08224254	    -13.40229256	     17.79707054	      3.75158902	     30.60227420	     -5.75488907	     -6.92583997	    -22.34895869	      4.88288686	     -6.71281623	    -13.62693296	      4.47316901	      6.23738645
      3.84000000	      2.17214604	      8.20550878	    154.19190079	      0.57055576	      0.90951846	     -0.45812974	     -7.98088016	      5.36770568	     -7.06930318	    -13.16824780	     18.23280388	      3.79110773	     30.58180027	     -6.34468417	     -8.44482821	    -19.83931291	      5.24008448	     -6.71184163	    -13.33126845	      4.50203327	      6.36307166
      3.85000000	      2.23455140	      8.31893123	    154.30959127	      0.56139347	      0.90724612	     -0.46153301	     -8.79570347	      5.47664867	     -7.05547704	    -12.92656424	     18.64636809	      3.86844513	     30.61573821	     -6.89665705	    -10.12295600	    -17.73995404	      5.60500524	     -6.76368429	    -13.03745796	      4.50208083	      6.44014598
      3.86000000	      2.34083404	      8.41046910	    154.39514261	      0.55208456	      0.90479699	     -0.46487004	     -9.53400325	      5.56109490	     -7.04190926	    -12.74500586	     19.07879702	      3.97701749	     30.79642811	     -7.44657208	    -11.90432523	    -16.12848286	      5.99553664	     -6.83083249	    -12.68607910	      4.49435155	      6.56210724
      3.87000000	      2.41424704	      8.47751872	    154.48191819	      0.54259896	      0.90233200	     -0.46813571	    -10.29878183	      5.59277035	     -7.01427036	    -12.56872522	     19.47022214	      4.12820028	     31.02517628	     -7.95194748	    -13.69368789	    -14.98670224	      6.35722664	     -6.96428697	    -12.35756893	      4.43471825	      6.63495010
      3.88000000	      2.53078388	      8.53490723	    154.55172178	      0.53300136	      0.89974370	     -0.47132776	    -10.97191969	      5.61308942	     -6.99490079	    -12.48843704	     19.84078134	      4.26767891	     31.39550339	     -8.47634205	    -15.41241032	    -14.37494933	      6.73628677	     -7.06994141	    -11.98944966	      4.38041282	      6.71908225
      3.89000000	      2.60249804	      8.54889597	    154.60671494	      0.52320691	      0.89723654	     -0.47448118	    -11.68510925	      5.55657113	     -6.90232724	    -12.39354885	     20.16349333	      4.50273999	     31.75676046	     -8.95204590	    -17.02451638	    -14.18208369	      6.99481234	     -7.34354245	    -11.64777366	      4.24175516	      6.83949850
      3.90000000	      2.69631038	      8.55766618	    154.65854343	      0.51326593	      0.89470298	     -0.47758644	    -12.33036405	      5.48775268	     -6.81831743	    -12.39510867	     20.43042667	      4.67986396	     32.21020858	     -9.45621717	    -18.48682678	    -14.48693910	      7.23764402	     -7.54495187	    -11.28830814	      4.09793425	      6.95148555
      3.91000000	      2.77482946	      8.53096700	    154.70698971	      0.50309877	      0.89226087	     -0.48061750	    -12.95818975	      5.36222925	     -6.65393229	    -12.44603868	     20.62217109	      4.95076720	     32.66878587	     -9.93315893	    -19.80443292	    -15.17218105	      7.33406960	     -7.95631986	    -10.92570835	      3.90941526	      7.05776414
      3.92000000	      2.83102849	      8.48764317	    154.77629083	      0.49266115	      0.88993979	     -0.48357801	    -13.57629564	      5.19682258	     -6.52348868	    -12.56088856	     20.71536302	      5.17385184	     33.12543465	    -10.39319991	    -20.96838691	    -16.22525900	      7.33621139	     -8.33819335	    -10.57069480	      3.68457106	      7.17197900
      3.93000000	      2.87737060	      8.40307458	    154.89576830	      0.48192804	      0.88774751	     -0.48637994	    -14.15809475	      4.98419720	     -6.36276164	    -12.74833632	     20.69747431	      5.50952248	     33.58746861	    -10.78047894	    -21.93422826	    -17.55737402	      7.15893142	     -9.03381040	    -10.19532463	      3.42178241	      7.19519233
      3.94000000	      2.88945705	      8.27617507	    155.06431106	      0.47083085	      0.88576225	     -0.48903521	    -14.73130538	      4.70904677	     -6.24535075	    -13.00141839	     20.55110456	      5.81504465	     34.01011610	    -11.08063776	    -22.73801284	    -19.10101527	      6.83202712	     -9.73811505	     -9.81372649	      3.10615823	      7.20244168
      3.95000000	      2.88047123	      8.09161494	    155.29393241	      0.45937401	      0.88399851	     -0.49148576	    -15.26181379	      4.36810775	     -6.14927065	    -13.34440288	     20.25401089	      6.14879937	     34.40404238	    -11.25731835	    -23.36437780	    -20.77481237	      6.33716911	    -10.54280241	     -9.40501501	      2.73283934	      7.15851305
      3.96000000	      2.84955413	      7.84035582	    155.61933340	      0.44752532	      0.88248213	     -0.49365543	    -15.74437893	      3.96038037	     -6.12997294	    -13.78087854	     19.78663118	      6.52001813	     34.77098255	    -11.26154834	    -23.76323305	    -22.50658316	      5.68538452	    -11.44295772	     -8.96223342	      2.30047998	      7.03599959
      3.97000000	      2.78720723	      7.52635858	    156.04457146	      0.43529401	      0.88124990	     -0.49549859	    -16.17263292	      3.48496732	     -6.19957421	    -14.34327116	     19.14478465	      6.93009454	     35.10068152	    -11.07437750	    -23.91567894	    -24.24917073	      4.96166197	    -12.39161531	     -8.50091859	      1.81540194	      6.82809064
      3.98000000	      2.70965593	      7.13479814	    156.57103747	      0.42271501	      0.88030483	     -0.49701018	    -16.51580261	      2.94125599	     -6.34381342	    -15.04422887	     18.32700817	      7.36388174	     35.40474037	    -10.67299948	    -23.82540197	    -25.94119078	      4.19009649	    -13.28181721	     -8.00020867	      1.26223854	      6.54116287
      3.99000000	      2.60303743	      6.69390584	    157.16350112	      0.40988147	      0.87972601	     -0.49818892	    -16.75713474	      2.33789480	     -6.51085189	    -15.95042811	     17.25004283	      7.86824855	     35.64551958	    -10.08766442	    -23.52371763	    -27.54259551	      3.46155853	    -14.18220250	     -7.50476600	      0.66400334	      6.22007463
      4.00000000	      2.47915127	      6.19823361	    157.85108738	      0.39679894	      0.87946396	     -0.49899904	    -16.88103326	      1.68030149	     -6.76907502	    -17.06696903	     15.98903984	      8.39277262	     35.84090207	     -9.29706253	    -22.99411123	    -29.03395613	      2.80783892	    -14.92953214	     -6.99923132	      0.02141035	      5.83261600
      4.01000000	      2.32322930	      5.68377116	    158.60799908	      0.38359529	      0.87956795	     -0.49945343	    -16.87229199	      0.98505175	     -7.09712483	    -18.45924619	     14.52242073	      8.87545198	     35.94902600	     -8.34054017	    -22.25388680	    -30.38617079	      2.25738148	    -15.48430398	     -6.53752756	     -0.64039308	      5.43827373
      4.02000000	      2.15459445	      5.15090308	    159.38335699	      0.37030241	      0.88002572	     -0.49965547	    -16.71528209	      0.25635976	     -7.34826148	    -20.10419308	     12.76292546	      9.49515330	     35.95964254	     -7.27852183	    -21.45460476	    -31.58792712	      1.92397096	    -16.01258319	     -6.09209872	     -1.31594600	      5.03638795
      4.03000000	      1.95702945	      4.63679475	    160.18584971	      0.35705368	      0.88082835	     -0.49958645	    -16.39544954	     -0.48294753	     -7.59493277	    -22.06280583	     10.79713020	     10.01733453	     35.84569291	     -6.13847759	    -20.56496579	    -32.62576773	      1.75008857	    -16.34261175	     -5.71999327	     -1.97524680	      4.66224556
      4.04000000	      1.73920617	      4.15127289	    160.99510142	      0.34393179	      0.88193370	     -0.49929310	    -15.89344836	     -1.22356403	     -7.79819699	    -24.33513423	      8.62727155	     10.39882527	     35.60155064	     -4.96711401	    -19.66187295	    -33.49628292	      1.72966069	    -16.52322515	     -5.42143685	     -2.60603274	      4.31450099
